<?xml version="1.0" standalone="no"?><!DOCTYPE svg PUBLIC "-//W3C//DTD SVG 1.1//EN" "http://www.w3.org/Graphics/SVG/1.1/DTD/svg11.dtd"><svg t="1612144356929" class="icon" viewBox="0 0 1024 1024" version="1.1" xmlns="http://www.w3.org/2000/svg" p-id="13694" xmlns:xlink="http://www.w3.org/1999/xlink" width="200" height="200"><defs><style type="text/css"></style></defs><path d="M0.569569 512.051775v-507.392052C0.569569 0.931945 1.397964 0.103549 5.125742 0.103549h1013.74861c3.727778 0 4.556174 0.828395 4.556173 4.556174v1014.784103c0 3.727778-0.828395 4.556174-4.556173 4.556174H5.022193c-3.727778 0-4.556174-0.828395-4.556174-4.556174q0.207099-253.799575 0.10355-507.392051z" fill="#FEFEFE" p-id="13695"></path><path d="M784.127866 157.602184a430.558398 430.558398 0 0 1 56.952169 52.292446 478.50177 478.50177 0 0 1 41.419759 52.499545c0.828395 1.242593 1.553241 2.588735 2.278087 3.831328a12.322378 12.322378 0 0 1-2.381636 4.763272 61.197694 61.197694 0 0 0 13.564971 87.188594 31.064819 31.064819 0 0 1 5.17747 3.934877 9.422995 9.422995 0 0 1 1.553241 6.627161 47.632723 47.632723 0 0 0 36.760036 45.665285c2.692284 0.724846 5.591668 0 8.283952 1.346142a232.2613 232.2613 0 0 1 5.798767 30.443523c1.242593 8.076853 1.967439 16.360805 3.002932 24.541208-1.346142 0-2.070988-0.724846-2.899383-1.553241a119.599555 119.599555 0 0 0-69.378097-30.236425 127.158661 127.158661 0 0 0-55.191829 6.93781h-1.449692c-1.863889 0-2.692284-1.139043-3.41713-2.485185a331.358075 331.358075 0 0 0-44.215593-62.129639 368.428759 368.428759 0 0 0-114.525635-84.082112 362.422894 362.422894 0 0 0-111.108504-31.789665 336.431995 336.431995 0 0 0-41.419759-2.795834 362.422894 362.422894 0 0 0-230.500961 82.839519 332.600667 332.600667 0 0 0-90.398625 113.904338 343.576904 343.576904 0 0 0-13.461421 33.757104 18.535342 18.535342 0 0 1-2.278087 5.488118c-2.485186 1.346142-4.038427-0.517747-5.695217-1.863889a90.398625 90.398625 0 0 0-96.300941-11.286885c-2.899383 1.449692-5.488118 3.934877-9.112347 3.313581a386.239256 386.239256 0 0 1 4.141976-43.801395 434.079078 434.079078 0 0 1 12.840126-57.159268 447.43695 447.43695 0 0 1 38.623925-93.194459 474.670442 474.670442 0 0 1 27.233492-43.180099 24.230559 24.230559 0 0 1 1.967439-2.174537c1.76034 1.449692 1.449692 3.624229 1.760339 5.488118a76.212357 76.212357 0 0 0 80.768531 62.129639 33.135807 33.135807 0 0 1 11.286884-1.553241c1.76034 0.931945 2.174537 2.795834 3.106482 4.349075a26.094448 26.094448 0 1 0 44.73334-26.405097 20.70988 20.70988 0 0 1-3.520679-5.902316 3.934877 3.934877 0 0 1 0.621296-2.795833 112.868844 112.868844 0 0 0 11.701082-23.816362l1.346143-0.724846a57.780564 57.780564 0 0 0 25.266053-10.35494 47.653433 47.653433 0 0 0-54.363434-78.283345 31.064819 31.064819 0 0 1-4.659723 2.899383 4.349075 4.349075 0 0 1-2.278087 0 81.079179 81.079179 0 0 0-30.339974-10.354939 4.452624 4.452624 0 0 1-3.520679-1.553241 271.506522 271.506522 0 0 1 34.171301-25.369603 438.738801 438.738801 0 0 1 112.972394-52.499545 459.966427 459.966427 0 0 1 71.966832-15.739509 499.315199 499.315199 0 0 1 82.218222-3.727778c10.35494 0 21.641824 1.863889 32.514511 2.899383 0 3.106482-2.174537 4.659723-3.727778 6.730711a47.839822 47.839822 0 0 0-7.352008 47.011427 49.807261 49.807261 0 0 0 43.180099 31.06482 49.082415 49.082415 0 0 0 50.117909-44.526242 52.395996 52.395996 0 0 0-2.485185-18.121144c0-1.553241-1.65679-3.002933-0.931945-4.763273a356.417029 356.417029 0 0 1 62.129639 24.851856c0.621296 1.553241 0 2.485186-1.242593 3.520679a49.393063 49.393063 0 0 0-11.804631 29.408029 3.313581 3.313581 0 0 1-0.828395 1.242593 35.724542 35.724542 0 0 0-33.860654 24.851856 36.449388 36.449388 0 0 0 68.135504 25.576701 11.597533 11.597533 0 0 1 2.070988-3.934877 4.141976 4.141976 0 0 1 1.346143-0.724846c4.556174-0.931945 9.112347 0.621296 13.77207 0a45.147538 45.147538 0 0 0 38.002629-30.132875 5.17747 5.17747 0 0 1 1.863889-2.381636zM926.611838 675.970472a333.636161 333.636161 0 0 1-21.952472 47.736273 422.999292 422.999292 0 0 1-35.828092 55.916675c-10.35494 13.047224-20.70988 25.369603-31.686116 37.484882a438.221054 438.221054 0 0 1-79.008191 66.789362 451.268278 451.268278 0 0 1-70.724239 38.209728 19.881484 19.881484 0 0 1-3.41713-6.523612 401.253918 401.253918 0 0 0-62.129639-100.442916c-1.035494-1.242593-2.485186-2.278087-2.485186-4.141976 1.967439-3.210031 5.591668-2.899383 8.5946-3.831328a40.487815 40.487815 0 0 1 8.076853-1.863889 86.877945 86.877945 0 0 0 57.366367-19.363738 139.791688 139.791688 0 0 1 17.29275-8.801699 295.115785 295.115785 0 0 0 67.307108-44.836889 242.305592 242.305592 0 0 0 44.215593-50.946304c1.035494-1.65679 1.553241-4.452624 4.659723-3.41713a98.682577 98.682577 0 0 0 35.620993 8.387501 122.706037 122.706037 0 0 0 58.816059-9.733643 6.109415 6.109415 0 0 1 5.281019-0.621297z" fill="#C4F0FE" p-id="13696"></path><path d="M926.611838 675.970472a129.02255 129.02255 0 0 1-63.268682 12.11528 133.475174 133.475174 0 0 1-34.792598-7.248458c-1.242593 0-2.485186-0.931945-2.588735-2.588735-0.517747-4.349075 3.210031-6.730711 4.556173-10.35494a209.687532 209.687532 0 0 0 25.576702-80.87208 226.669633 226.669633 0 0 0 0-33.757104 207.098797 207.098797 0 0 0-5.488118-38.831024 279.583375 279.583375 0 0 0-23.195066-63.372232c-0.828395-1.553241-1.967439-3.210031-0.724845-5.07392a81.079179 81.079179 0 0 1 28.786732-7.869755 123.223784 123.223784 0 0 1 57.055719 5.695217 128.504803 128.504803 0 0 1 38.002629 20.70988 50.325008 50.325008 0 0 1 5.695217 6.109414c0.621296 12.529477 1.967439 25.162504 1.76034 37.691981 0 16.050157-0.724846 32.100313-2.485186 48.046921a456.342198 456.342198 0 0 1-11.286884 64.821924 372.777834 372.777834 0 0 1-17.603398 54.777631z" fill="#93F2FE" p-id="13697"></path><path d="M294.753409 901.190414a93.194458 93.194458 0 0 1-20.709879-11.804632 459.44868 459.44868 0 0 1-70.413591-54.777632c-7.973304-7.559106-14.911113-15.946607-22.987967-23.402164a5.281019 5.281019 0 0 1-2.278086-4.659722 37.79553 37.79553 0 0 0 4.452624-14.911114 20.70988 20.70988 0 0 0-29.511579-19.156639 7.766205 7.766205 0 0 1-3.210031 1.139044 423.30994 423.30994 0 0 1-49.185964-86.463748 218.178582 218.178582 0 0 1-11.597533-31.064819 3.106482 3.106482 0 0 1 3.210032-0.828395 124.259278 124.259278 0 0 0 32.203862 2.278086c2.381636 1.76034 2.381636 4.659723 3.210032 7.041359a46.907877 46.907877 0 0 0 29.511578 30.236425 45.147538 45.147538 0 0 0 39.245222-3.727779 13.979169 13.979169 0 0 1 4.866822-2.381636 4.763272 4.763272 0 0 1 3.106482 2.070988 268.50359 268.50359 0 0 0 88.845384 78.179796 359.316412 359.316412 0 0 0 53.742137 24.644757c1.863889 0.724846 3.831328 1.242593 4.659723 3.31358a26.612195 26.612195 0 0 1-6.83426 9.526545 317.068258 317.068258 0 0 0-39.762969 58.60896 78.283345 78.283345 0 0 0-9.319446 33.135807 4.349075 4.349075 0 0 1-1.242593 3.002933z" fill="#C4F0FE" p-id="13698"></path><path d="M294.753409 901.190414a88.741834 88.741834 0 0 1 15.325311-48.046921 400.94327 400.94327 0 0 1 41.41976-56.537972 34.171301 34.171301 0 0 1 8.905248-12.115279 146.108201 146.108201 0 0 0 15.014663-16.360805 27.647689 27.647689 0 0 0 7.869754-6.834261c8.491051-10.35494 19.053089-18.84599 27.54414-29.304479a101.064213 101.064213 0 0 1 7.662655-7.766205 25.162504 25.162504 0 0 1 37.070685 0.828395 19.156639 19.156639 0 0 1 4.556174 12.322378 12.633027 12.633027 0 0 0 3.31358 8.076854 31.064819 31.064819 0 0 1 5.28102 34.27485 48.461118 48.461118 0 0 1-7.662656 14.393367 60.26575 60.26575 0 0 0-10.35494 24.541207 59.126706 59.126706 0 0 0-2.795833 7.455557 350.100516 350.100516 0 0 1-30.339974 70.102942 126.123167 126.123167 0 0 1-29.718677 36.967136c-2.381636 1.967439-4.556174 4.452624-7.973304 4.659723A300.293255 300.293255 0 0 1 342.179034 924.489028a456.445748 456.445748 0 0 1-43.490747-20.709879c-1.76034-0.517747-3.313581-1.035494-3.934878-2.588735z" fill="#E94949" p-id="13699"></path><path d="M379.353268 937.95045a128.090606 128.090606 0 0 0 37.79553-44.526241 342.955607 342.955607 0 0 0 28.993832-67.928406 13.668521 13.668521 0 0 1 5.488118-2.278086 157.187987 157.187987 0 0 1 34.689048-1.86389 21.434725 21.434725 0 0 0 7.455557 0.724846 137.513601 137.513601 0 0 1 66.271615 21.952473 51.774699 51.774699 0 0 1 17.810496 21.952472 181.936293 181.936293 0 0 1 15.221762 60.26575 143.623015 143.623015 0 0 1 0.724846 23.816362 171.270705 171.270705 0 0 1-23.091516 3.831327 3.313581 3.313581 0 0 1-2.174537-1.863889 95.058348 95.058348 0 0 0-18.94954-23.402164c-10.35494-10.35494-21.952472-20.70988-32.307413-31.064819-4.245525-4.349075-4.141976-4.141976-8.698149 0-12.943675 11.390434-25.369603 23.298615-38.313277 34.585499a63.579331 63.579331 0 0 0-15.325311 20.709879 2.485186 2.485186 0 0 1-1.76034 1.035494 343.887552 343.887552 0 0 1-51.360502-9.422995 192.80898 192.80898 0 0 1-22.470219-6.523612z" fill="#F96258" p-id="13700"></path><path d="M125.139495 657.952877a93.194458 93.194458 0 0 1-35.931641-1.967439 310.648195 310.648195 0 0 1-13.87562-47.529173 490.5135 490.5135 0 0 1-8.801698-54.984731c0-4.141976-0.931945-8.283952-0.931945-12.322378 0-12.943675-1.863889-25.7838-1.139043-38.727475 0-4.452624 0.621296-8.905248 0.931944-13.357873a98.16483 98.16483 0 0 1 40.177167-13.254323 90.916372 90.916372 0 0 1 66.064516 20.70988l4.038426 2.899383c1.65679 3.313581-0.724846 6.212964-1.139043 9.319446a47.114976 47.114976 0 0 1-1.242593 5.281019 196.743857 196.743857 0 0 0-5.281019 27.958338 14.600465 14.600465 0 0 0-0.621296 5.591667 29.511579 29.511579 0 0 1 0 5.798767 32.825159 32.825159 0 0 0 0 10.354939 323.281222 323.281222 0 0 0 1.346142 38.727475c-0.517747 1.76034-2.070988 1.967439-3.52068 2.174538a45.975933 45.975933 0 0 0-38.209728 46.183031 19.467287 19.467287 0 0 1 0 6.93781zM243.807105 316.136313a74.866215 74.866215 0 0 1-43.801395-2.899383 75.901709 75.901709 0 0 1-49.807261-59.540904 26.612195 26.612195 0 0 1 0-4.452624 216.211144 216.211144 0 0 1 19.777935-25.88735 382.200829 382.200829 0 0 1 36.24229-38.209728 185.767621 185.767621 0 0 1 25.680251-21.641824 65.650319 65.650319 0 0 1 34.067752 11.079786c0.621296 2.588735-1.65679 3.831328-2.899383 5.384568a47.943371 47.943371 0 0 0-4.763273 57.780565 46.286581 46.286581 0 0 0 36.967135 22.26312c1.967439 0 4.038427 0 5.591668 1.346142a57.055718 57.055718 0 0 1-9.008798 20.70988l-3.002932 5.073921a1.967439 1.967439 0 0 1-1.449692 0 43.594297 43.594297 0 0 0-15.325311-5.488119 25.7838 25.7838 0 0 0-27.751239 27.854789 11.286884 11.286884 0 0 1 0 5.384568z" fill="#B1DAFE" p-id="13701"></path><path d="M593.804072 950.169279c-1.863889-1.553241-1.139043-3.727778-1.139044-5.591668a192.187683 192.187683 0 0 0-15.532409-76.212357 54.674082 54.674082 0 0 0-23.816362-27.026393 145.797553 145.797553 0 0 0-59.333805-17.914046v-1.449691c2.174537-2.174537 4.970371-1.449692 7.559106-1.346142a490.720599 490.720599 0 0 0 65.960967-3.002933c14.911113-1.449692 29.408029-4.349075 44.112043-7.144908 2.692284 0 5.902316-2.174537 8.283952 0.931944a346.476287 346.476287 0 0 1 37.795531 50.946304 373.606229 373.606229 0 0 1 28.165436 54.570533 10.35494 10.35494 0 0 1 1.553241 5.17747 476.948529 476.948529 0 0 1-79.008191 25.680251c-4.866822 1.035494-9.837193 1.553241-14.600465 2.381636z" fill="#E94949" p-id="13702"></path><path d="M644.543277 84.910507a40.487815 40.487815 0 0 1 3.52068 31.064819 48.15047 48.15047 0 0 1-38.209728 37.381333 49.393063 49.393063 0 0 1-59.126707-42.248155 53.224391 53.224391 0 0 1 15.014663-42.662352 269.228436 269.228436 0 0 1 37.381333 6.005865 289.938315 289.938315 0 0 1 41.419759 10.45849z" fill="#D6F4FE" p-id="13703"></path><path d="M453.598186 952.861563a49.082415 49.082415 0 0 1 13.150774-19.053089c14.186268-13.150774 28.683183-26.094448 42.973-39.245222 2.174537-1.967439 3.313581-2.174537 5.591668 0 13.357872 12.943675 26.819294 25.680251 40.280716 38.416827a69.792294 69.792294 0 0 1 14.807564 20.70988l-1.035494 0.931944a5.488118 5.488118 0 0 0-4.866822 0h-3.106482c-2.174537 1.242593-4.763272 0-6.93781 0.931945h-3.106482c-2.899383 1.242593-6.005865 0-8.905248 0.931944a10.35494 10.35494 0 0 0-5.17747 1.035494 43.07655 43.07655 0 0 0-10.35494 0 40.280716 40.280716 0 0 0-10.354939 0h-10.665588a50.325008 50.325008 0 0 0-10.35494 0 44.319142 44.319142 0 0 0-10.35494 0l-4.141976-1.035494c-3.210031-1.346142-6.730711 0-10.35494-0.931944h-3.106482c-2.174537-1.242593-4.659723 0-6.83426-0.931945h-2.070988c-1.035494-1.139043-4.245525 1.65679-5.073921-1.76034z" fill="#F1F1F1" p-id="13704"></path><path d="M784.127866 157.602184a42.973 42.973 0 0 1-26.405097 29.822227 46.804328 46.804328 0 0 1-27.44059 2.899383 4.866822 4.866822 0 0 1-0.931945-4.659723 36.552938 36.552938 0 0 0-33.239357-41.419759 4.970371 4.970371 0 0 1-3.624229-1.242593 47.322075 47.322075 0 0 1 13.979169-33.032258 261.56578 261.56578 0 0 1 36.13874 18.94954 377.541106 377.541106 0 0 1 41.523309 28.683183z" fill="#E8ADFE" p-id="13705"></path><path d="M900.724488 362.940641a62.750935 62.750935 0 0 1-15.946607-96.715138 444.537567 444.537567 0 0 1 33.446456 59.437355 8.180402 8.180402 0 0 1 0 1.863889c-0.621296 1.449692 0 3.210031-1.449692 4.556173a57.677015 57.677015 0 0 0-14.807564 30.857721 0.931945 0.931945 0 0 1-1.242593 0z" fill="#B1B2FE" p-id="13706"></path><path d="M900.724488 362.940641h1.035494a2.588735 2.588735 0 0 1 2.381637 0 79.525938 79.525938 0 0 0 28.786732 6.83426 4.866822 4.866822 0 0 1 2.692285 1.139044 251.107291 251.107291 0 0 1 12.115279 44.836889c-2.588735 1.76034-5.384569 0.517747-7.869754 0a48.978865 48.978865 0 0 1-38.623926-48.668217 6.316513 6.316513 0 0 0-0.517747-4.141976z" fill="#B1DAFE" p-id="13707"></path><path d="M935.517086 370.913945a66.478714 66.478714 0 0 1-33.860653-7.973304 44.008494 44.008494 0 0 1 12.840125-28.993831c1.553241-1.863889 2.070988-4.452624 4.141976-5.902316a281.136616 281.136616 0 0 1 16.878552 42.869451z" fill="#B0ABFE" p-id="13708"></path><path d="M149.991351 773.617555a17.810497 17.810497 0 0 1 19.674385-2.899383 20.70988 20.70988 0 0 1 14.704015 17.914046 19.674386 19.674386 0 0 1-6.005865 17.914046c-4.141976-0.621296-5.488118-4.556174-7.766205-7.144909-6.93781-8.283952-13.875619-17.1892-20.60633-25.7838z" fill="#EFFABC" p-id="13709"></path><path d="M495.017946 957.314187c3.624229 0 7.455557-1.139043 10.976236 0.931945h-10.976236v-0.621296z" fill="#F7DAD1" p-id="13710"></path><path d="M471.098035 956.071595c3.313581 0 6.730711-0.931945 10.35494 0.931944-3.831328-0.414198-7.144908 1.139043-10.35494-0.931944z" fill="#EACFCD" p-id="13711"></path><path d="M495.017946 957.314187v0.931945h-10.35494c3.624229-2.174537 7.041359-0.931945 10.35494-0.931945z" fill="#E0C8CB" p-id="13712"></path><path d="M517.902363 958.039033c3.210031-1.967439 6.627161-0.517747 10.35494-0.931944v0.621296z" fill="#F7DAD1" p-id="13713"></path><path d="M527.946654 957.935484v-0.931945c3.313581 0 6.730711-1.035494 10.35494 0.931945z" fill="#E0C8CB" p-id="13714"></path><path d="M542.857768 957.314187c2.795834-1.967439 5.902316-0.517747 8.905248-0.931944-2.795834 1.76034-5.902316 0.207099-8.905248 0.931944z" fill="#E9CECC" p-id="13715"></path><path d="M453.598186 952.861563c1.139043 2.070988 3.831328 0 5.073921 2.174538-1.967439 0-4.245525 0.931945-5.902316-1.035494z" fill="#EBD0CD" p-id="13716"></path><path d="M461.157293 955.036101c2.278087 0 4.763272-0.828395 6.83426 0.931944-2.278087-0.310648-4.866822 1.346142-6.83426-0.931944z" fill="#E5CBC9" p-id="13717"></path><path d="M554.869498 955.968045c2.070988-1.863889 4.556174-0.621296 6.93781-0.931944-2.070988 2.278087-4.659723 0.621296-6.93781 0.931944z" fill="#E6CDCC" p-id="13718"></path><path d="M564.81024 955.036101a3.313581 3.313581 0 0 1 4.866822 0z" fill="#E6CCCC" p-id="13719"></path><path d="M172.150922 513.294367l3.520679-13.772069a326.491253 326.491253 0 0 1 118.87471-164.643544 359.212863 359.212863 0 0 1 146.418849-66.271615 352.067954 352.067954 0 0 1 54.052786-6.523612 365.425827 365.425827 0 0 1 285.69279 118.046314 4.349075 4.349075 0 0 1 0 0.828395 111.729801 111.729801 0 0 1 9.630094 29.200931 262.083527 262.083527 0 0 1 1.449691 46.183031 242.926888 242.926888 0 0 1-27.54414 99.407423 110.901406 110.901406 0 0 1-7.352007 12.425928c-3.002933 0-2.899383-2.070988-3.520679-3.727779a198.089999 198.089999 0 0 0-23.712813-46.49368 240.027505 240.027505 0 0 0-77.45495-70.51714 266.018404 266.018404 0 0 0-97.543533-34.481949 283.414703 283.414703 0 0 0-122.18829 7.973303 264.775812 264.775812 0 0 0-102.306805 56.020225 194.258671 194.258671 0 0 0-63.68288 100.132268 142.587521 142.587521 0 0 0 23.402164 119.703104c1.76034 2.485186 5.073921 4.556174 3.520679 8.491051a324.730913 324.730913 0 0 1-38.934574-3.002933 279.583375 279.583375 0 0 1-41.419759-7.144908 18.742441 18.742441 0 0 1-9.422995-4.245525l-1.967439-2.070988a37.174234 37.174234 0 0 1-11.701082-19.570837 299.671959 299.671959 0 0 0 9.112347-32.928708 151.38922 151.38922 0 0 0-24.127009-118.253413 24.12701 24.12701 0 0 1-2.795834-4.763273z" fill="#FA665A" p-id="13720"></path><path d="M756.065979 568.486197a7.766205 7.766205 0 0 1 1.139043-3.727779 235.264233 235.264233 0 0 0 31.06482-86.670846 266.018404 266.018404 0 0 0 2.174537-55.191829 112.351097 112.351097 0 0 0-9.008797-37.795531c0-1.139043-1.863889-2.588735 0-4.141976a304.64233 304.64233 0 0 1 43.180099 60.162201c0.828395 1.553241 1.863889 3.106482 2.795833 4.659723a302.157144 302.157144 0 0 1 22.159572 56.952169l2.692284 10.35494a13.254323 13.254323 0 0 1-3.002933 5.695217 143.726565 143.726565 0 0 0-27.544139 72.484578 168.889069 168.889069 0 0 0 7.869754 70.62069 15.325311 15.325311 0 0 1 1.65679 7.662656l-4.866822 8.180402a263.222571 263.222571 0 0 1-43.697846 51.774699 321.935079 321.935079 0 0 1-83.978562 54.363434l-3.934877 2.070988a199.746789 199.746789 0 0 1-57.780564 19.985034 53.638588 53.638588 0 0 0-16.775003 4.970371 12.425928 12.425928 0 0 0-8.180402 0 391.416726 391.416726 0 0 1-63.579331 9.008798c-13.668521 0.828395-27.337041 1.139043-41.419759 1.65679-4.349075 0-8.698149-1.76034-13.047224 0-12.01173-0.724846-24.02346-0.517747-35.931641-1.65679a14.186268 14.186268 0 0 1-8.905249-2.278087 52.913743 52.913743 0 0 1 11.079786-24.955405 19.881484 19.881484 0 0 1 8.387501 0 336.224896 336.224896 0 0 0 66.478714 1.863889 318.517949 318.517949 0 0 0 73.830721-13.254323 254.110223 254.110223 0 0 0 92.055415-50.014359 179.554657 179.554657 0 0 0 44.83689-56.537972 141.759126 141.759126 0 0 0 10.354939-97.854181c-0.103549-2.692284-2.278087-5.384569-0.103549-8.387501z" fill="#F55954" p-id="13721"></path><path d="M786.613051 202.439074a37.484882 37.484882 0 0 1 38.934574 38.727475 38.313277 38.313277 0 0 1-38.520376 38.002629 39.038123 39.038123 0 0 1-38.831024-38.416827 38.209728 38.209728 0 0 1 38.416826-38.313277z" fill="#D6F4FE" p-id="13722"></path><path d="M267.209269 174.584286a44.112044 44.112044 0 0 1 38.106179-10.35494 47.632723 47.632723 0 0 1 41.419759 42.765901 45.975933 45.975933 0 0 1-8.5946 33.342907 48.978865 48.978865 0 0 1-36.967135 20.709879c-1.553241-1.863889-0.517747-3.831328 0-5.695217a76.005258 76.005258 0 0 0-30.443523-77.040752c-1.242593-0.828395-3.52068-1.449692-3.52068-3.727778z" fill="#B1DAFE" p-id="13723"></path><path d="M729.246685 190.530893a36.656487 36.656487 0 0 1-31.893215 27.026393 37.381333 37.381333 0 0 1-33.964203-60.472849 39.348771 39.348771 0 0 1 24.12701-14.289817 5.798766 5.798766 0 0 1 4.763273 0.828395c1.553241 1.139043 1.242593 2.899383 1.449691 4.556174A45.768834 45.768834 0 0 0 725.311808 187.63151c1.449692 0.621296 3.831328 0.207099 3.934877 2.899383z" fill="#A8F1FE" p-id="13724"></path><path d="M267.209269 174.584286a80.664981 80.664981 0 0 1 28.579634 32.203862 79.008191 79.008191 0 0 1 5.798767 51.7747v2.899383h-0.931945a48.668217 48.668217 0 0 1-50.325007-39.348772 49.289514 49.289514 0 0 1 12.529477-44.319142l2.899383-3.41713z" fill="#ACD5FE" p-id="13725"></path><path d="M287.919149 287.246031h0.828395a58.919608 58.919608 0 0 1 6.93781 10.35494 27.440591 27.440591 0 1 1-51.774699 18.017595c0.828395-1.76034 2.588735-1.967439 4.141976-2.381636a80.043685 80.043685 0 0 0 36.760036-23.919911 12.529477 12.529477 0 0 1 3.106482-2.070988z" fill="#E8ADFE" p-id="13726"></path><path d="M729.246685 190.530893a56.434422 56.434422 0 0 1-23.091516-12.943675 46.49368 46.49368 0 0 1-14.393366-33.860653v-1.035494a36.345839 36.345839 0 0 1 35.620993 22.677318 31.064819 31.064819 0 0 1 2.588735 20.70988 32.307412 32.307412 0 0 0 0 4.452624z" fill="#E2ADFE" p-id="13727"></path><path d="M784.956261 769.682678a27.026393 27.026393 0 1 1-27.026393 28.061887 27.129942 27.129942 0 0 1 27.026393-28.061887z" fill="#B1DAFE" p-id="13728"></path><path d="M636.466424 806.442714A607.52432 607.52432 0 0 0 694.246988 786.45768a77.144302 77.144302 0 0 1-31.996764 16.775003 78.801092 78.801092 0 0 1-25.7838 3.210031z" fill="#DCBFFD" p-id="13729"></path><path d="M830.621546 669.239761a116.493073 116.493073 0 0 1-9.422995-32.928708 155.324097 155.324097 0 0 1 12.736576-95.368996 106.65588 106.65588 0 0 1 17.810496-27.337041 150.146628 150.146628 0 0 1 5.073921 28.165436 254.73152 254.73152 0 0 1 0.621296 34.274851 185.146324 185.146324 0 0 1-15.325311 69.688745 125.087673 125.087673 0 0 1-11.493983 23.505713z" fill="#F5F5F5" p-id="13730"></path><path d="M203.837038 690.985135a289.938315 289.938315 0 0 0 56.020224 10.35494c9.422995 1.139043 19.053089 1.449692 28.476085 2.174537a50.946304 50.946304 0 0 1 5.281019 0.931945c2.795834 0 3.727778 2.485186 5.17747 4.141976a228.326423 228.326423 0 0 0 70.724239 54.98473c2.174537 1.139043 5.281019 1.449692 5.902316 4.659723s-1.346142 3.934877-2.899383 5.384569a268.089392 268.089392 0 0 0-20.70988 22.573769c-12.529477-5.488118-25.576701-10.35494-37.89908-16.050157a281.033067 281.033067 0 0 1-108.830417-86.670846 23.091516 23.091516 0 0 1-1.242593-2.485186z" fill="#F55954" p-id="13731"></path><path d="M190.582715 669.964607l11.286884 18.94954a47.943371 47.943371 0 0 1-63.993528-5.17747 42.765902 42.765902 0 0 1-12.736576-25.680251 6.005865 6.005865 0 0 1 3.624229-1.449691 94.229952 94.229952 0 0 0 41.419759-18.431793 8.905248 8.905248 0 0 1 4.763273-2.588735c1.553241 0 2.174537 1.449692 2.588735 2.692284a224.805744 224.805744 0 0 0 12.736576 29.097381 5.17747 5.17747 0 0 1 0.310648 2.588735z" fill="#B0ABFE" p-id="13732"></path><path d="M375.418391 768.543634c-9.630094-5.488118-19.570836-10.35494-28.890282-16.464354a229.569016 229.569016 0 0 1-52.810194-47.218526 173.341693 173.341693 0 0 1-26.508646-48.461118 142.483972 142.483972 0 0 1 1.76034-94.64415 218.48923 218.48923 0 0 1 95.886743-111.83335 268.089392 268.089392 0 0 1 120.5315-40.384266 274.302356 274.302356 0 0 1 192.498331 53.535039 207.720093 207.720093 0 0 1 77.351401 104.067146 5.591668 5.591668 0 0 0 0.828395 1.242592 203.681666 203.681666 0 0 1 6.109414 39.141673 145.694003 145.694003 0 0 1-30.443523 93.194458 231.122257 231.122257 0 0 1-109.451714 77.765599 326.077055 326.077055 0 0 1-128.090605 18.742441 194.569319 194.569319 0 0 1-34.067752-3.727779 53.43149 53.43149 0 0 0 10.354939-29.20093 22.470219 22.470219 0 0 0-5.591667-15.53241 22.36667 22.36667 0 0 1-6.109415-13.564971 22.780868 22.780868 0 0 0-38.623925-10.35494q-19.674386 20.70988-39.55587 41.41976c-1.65679 0.931945-2.795834 2.795834-5.17747 2.278086z" fill="#F9E7DA" p-id="13733"></path><path d="M449.145562 818.454444a363.665487 363.665487 0 0 0 41.41976 3.002933c1.242593 0 2.692284 0 3.624229 1.035494a11.079786 11.079786 0 0 1-6.93781 0 205.649105 205.649105 0 0 0-40.902012 3.002932z" fill="#F14E4E" p-id="13734"></path><path d="M487.044642 822.69997h6.93781v0.931944c-2.278087-0.931945-4.866822 0.724846-6.93781-0.931944z" fill="#F55954" p-id="13735"></path><path d="M190.582715 669.964607a239.613308 239.613308 0 0 1-15.53241-33.653554 23.816362 23.816362 0 0 1-4.038427-10.35494 133.371625 133.371625 0 0 1-4.141975-17.1892c0-1.76034-1.035494-3.52068 0-5.28102a209.687532 209.687532 0 0 1-1.86389-39.970067c1.242593-3.210031 0-6.730711 0.931945-10.35494v-6.005865c1.139043-1.449692 0-3.41713 0.931945-4.970371a127.676408 127.676408 0 0 1 5.177469-29.097381 111.83335 111.83335 0 0 1 21.745374 38.002629 152.114066 152.114066 0 0 1 8.283952 74.969764 167.750025 167.750025 0 0 1-11.493983 43.904945z" fill="#F5F5F5" p-id="13736"></path><path d="M166.973452 603.175245l8.076853 33.135808a99.614521 99.614521 0 0 1-43.490747 20.709879 44.940439 44.940439 0 0 1-6.316514 0.621297 48.15047 48.15047 0 0 1 12.011731-40.177167 41.419759 41.419759 0 0 1 29.718677-14.289817z" fill="#ACC9FE" p-id="13737"></path><path d="M166.041507 553.471534c0 3.313581 0.931945 6.83426-0.931944 10.35494 0.310648-3.831328-1.449692-7.352007 0.931944-10.35494z" fill="#F0E4DF" p-id="13738"></path><path d="M166.973452 542.391748c0 1.65679 0.621296 3.52068-0.931945 4.970372 0.207099-1.65679-0.621296-3.52068 0.931945-4.970372z" fill="#D3C5CA" p-id="13739"></path><path d="M287.919149 287.246031a55.502478 55.502478 0 0 1-16.257255 16.257255 79.940136 79.940136 0 0 1-27.64769 12.529478 27.233492 27.233492 0 0 1 18.328244-34.171302 27.854788 27.854788 0 0 1 25.576701 5.384569z" fill="#BCCAFE" p-id="13740"></path><path d="M539.544187 696.887451a33.239357 33.239357 0 0 0 34.48195 10.35494 23.505713 23.505713 0 0 1 29.408029 16.982101 26.922844 26.922844 0 0 1-19.156639 34.171301 59.230256 59.230256 0 0 1-43.904945-4.349074 48.357569 48.357569 0 0 1-27.54414-26.508646 16.878552 16.878552 0 0 0-1.863889-2.899384 12.736576 12.736576 0 0 1 2.692284-15.014662 7.662655 7.662655 0 0 1 10.35494-2.070988 110.07301 110.07301 0 0 0 18.121145 18.224694 53.638588 53.638588 0 0 0 18.94954 9.837193 65.33967 65.33967 0 0 1-34.999697-26.819294c0-8.905248 4.556174-12.943675 13.461422-11.908181z" fill="#FE6694" p-id="13741"></path><path d="M539.544187 696.887451a13.564971 13.564971 0 0 1-2.692284 0.931944c-7.248458 0.931945-9.422995 3.41713-10.35494 10.976237a2.278087 2.278087 0 0 1-3.106482 0 9.319446 9.319446 0 0 0-12.736576 8.698149v7.248458a23.712812 23.712812 0 0 1-13.875619-15.221762 125.916068 125.916068 0 0 1-5.902316-50.428557c0-2.899383 1.967439-3.624229 4.452624-3.210031a68.135504 68.135504 0 0 0 36.13874-2.795834c3.41713-1.242593 4.141976 1.65679 4.659723 4.141976a157.912832 157.912832 0 0 1 3.41713 39.65942z" fill="#D72E2E" p-id="13742"></path><path d="M682.545906 621.607038a45.665285 45.665285 0 0 1-7.559106 27.337041 12.736576 12.736576 0 0 1-22.780868 0 55.813126 55.813126 0 0 1 0-56.74507 12.840125 12.840125 0 0 1 22.573769-0.724846 46.700779 46.700779 0 0 1 7.766205 30.132875zM347.356504 620.364445a51.774699 51.774699 0 0 1 4.038426-22.056021 26.405097 26.405097 0 0 1 6.730711-9.733644 11.493983 11.493983 0 0 1 16.878552 0 35.620993 35.620993 0 0 1 9.733644 21.848923 51.774699 51.774699 0 0 1-7.041359 38.209728 12.633027 12.633027 0 0 1-22.47022 0.517747 45.354636 45.354636 0 0 1-7.869754-28.786733z" fill="#2C1919" p-id="13743"></path><path d="M700.356403 672.035595a17.085651 17.085651 0 0 1 12.01173 3.106482 7.559106 7.559106 0 0 1 0.103549 12.943675 24.334109 24.334109 0 0 1-25.7838 0c-6.109415-4.141976-5.17747-11.286884 1.967439-14.807564a20.70988 20.70988 0 0 1 11.701082-1.242593zM324.472087 671.932046a17.603398 17.603398 0 0 1 12.633026 3.934877 6.83426 6.83426 0 0 1 0.621297 11.390434 22.987966 22.987966 0 0 1-27.54414 0.828395 7.144908 7.144908 0 0 1 0-12.218829 18.638892 18.638892 0 0 1 14.289817-3.934877z" fill="#F28FAF" p-id="13744"></path><path d="M523.908228 708.795632h3.106482c3.624229 3.831328 7.248458 7.662655 10.872687 11.390433a47.529174 47.529174 0 0 0 26.301547 14.807564s0.724846 0.621296 1.139043 0.931945c-8.180402 3.934877-29.511579-10.044292-41.419759-27.129942z" fill="#ED4765" p-id="13745"></path></svg>